{"title":"The Swan Princess Princess Tomorrow Pirate Today 2016 Movies DVD","uid":15759142,"size":739474547,"categoryP":"video","categoryS":"movies","magnet":"?xt=urn:btih:7989d944dc8f3ce42ca7ebf67a661f879ecf5cba&amp;dn=The+Swan+Princess+Princess+Tomorrow+Pirate+Today+2016+Movies+DVD&amp;tr=udp%3A%2F%2Ftracker.leechers-paradise.org%3A6969&amp;tr=udp%3A%2F%2Fzer0day.ch%3A1337&amp;tr=udp%3A%2F%2Fopen.demonii.com%3A1337&amp;tr=udp%3A%2F%2Ftracker.coppersurfer.tk%3A6969&amp;tr=udp%3A%2F%2Fexodus.desync.com%3A6969","seeders":3,"leechers":2,"uploader":"basicssom","files":2,"time":1473089618,"description":"----------------------------------------------------------------\r\nThe Swan Princess Princess Tomorrow Pirate Today 2016 English Movies DVDRip XviD New Sample ☻rDX☻\r\n\r\nSCREEN SHOTS &amp; POSTER:\r\n  \nhttp://postimage.co.nr/2016/9/recharge/index.htm  \nhttp://postimage.co.nr/2016/9/recharge/1.html  \nhttp://postimage.co.nr/2016/9/recharge/2.html  \nhttp://postimage.co.nr/2016/9/recharge/3.html  \nhttp://postimage.co.nr/2016/9/recharge/4.html  \nhttp://postimage.co.nr/2016/9/recharge/5.html  \nhttp://postimage.co.nr/2016/9/recharge/6.html  \nhttp://postimage.co.nr/2016/9/recharge/7.html  \nhttp://postimage.co.nr/2016/9/recharge/8.html  \nhttp://postimage.co.nr/2016/9/recharge/9.html  \nhttp://postimage.co.nr/2016/9/recharge/10.html\r\n\r\nFormat                                   : Matroska\r\nFormat version                           : Version 4 / Version 2\r\nFile size                                : 698 MiB\r\nDuration                                 : 1 h 18 min\r\nOverall bit rate mode                    : Constant\r\nOverall bit rate                         : 1 236 kb/s\r\nMovie name                               : The Swan Princess Princess Tomorrow Pirate Today 2016 English Movies DVDRip XviD ☻rDX☻\r\n\r\nVideo\r\nID                                       : 2\r\nFormat                                   : AVC\r\nFormat/Info                              : Advanced Video Codec\r\nFormat profile                           :   \r\nFormat settings, CABAC                   : Yes\r\nFormat settings, ReFrames                : 2 frames\r\nFormat settings, GOP                     : M=1, N=12\r\nCodec ID                                 : V_MPEG4/ISO/AVC\r\nDuration                                 : 1 h 18 min\r\nBit rate mode                            : Constant\r\nBit rate                                 : 1 109 kb/s\r\nWidth                                    : 720 pixels\r\nHeight                                   : 400 pixels\r\nDisplay aspect ratio                     : 16:9\r\nFrame rate mode                          : Constant\r\nFrame rate                               : 23.976 (24000/1001) FPS\r\nColor space                              : YUV\r\nChroma subsampling                       : 4:2:0\r\nBit depth                                : 8 bits\r\nScan type                                : Progressive\r\nBits/(Pixel*Frame)                       : 0.161\r\nStream size                              : 612 MiB (88%)\r\nTitle                                    : ☻rDX☻\r\nDefault                                  : Yes\r\nForced                                   : No\r\n\r\nAudio\r\nID                                       : 1\r\nFormat                                   : MPEG Audio\r\nFormat version                           : Version 1\r\nFormat profile                           : Layer 3\r\nMode                                     : Joint stereo\r\nCodec ID                                 : A_MPEG/L3\r\nCodec ID/Hint                            : MP3\r\nDuration                                 : 1 h 18 min\r\nBit rate mode                            : Constant\r\nBit rate                                 : 128 kb/s\r\nChannel(s)                               : 2 channels\r\nSampling rate                            : 48.0 kHz\r\nCompression mode                         : Lossy\r\nStream size                              : 72.3 MiB (10%)\r\nTitle                                    : ☻rDX☻\r\nWriting library                          : LAME3.98\r\nDefault                                  : Yes\r\nForced                                   : No\r\n\r\nIMDB \nhttp://www.imdb.com/title/tt5915572/","torrent":{"xt":"urn:btih:7989d944dc8f3ce42ca7ebf67a661f879ecf5cba","amp;dn":"The+Swan+Princess+Princess+Tomorrow+Pirate+Today+2016+Movies+DVD","amp;tr":["udp%3A%2F%2Ftracker.leechers-paradise.org%3A6969","udp%3A%2F%2Fzer0day.ch%3A1337","udp%3A%2F%2Fopen.demonii.com%3A1337","udp%3A%2F%2Ftracker.coppersurfer.tk%3A6969","udp%3A%2F%2Fexodus.desync.com%3A6969"],"infoHash":"7989d944dc8f3ce42ca7ebf67a661f879ecf5cba","infoHashBuffer":{"type":"Buffer","data":[121,137,217,68,220,143,60,228,44,167,235,246,122,102,31,135,158,207,92,186]},"announce":[],"urlList":[]}}